<svg xmlns="http://www.w3.org/2000/svg" width="128" height="128" viewBox="0 0 128 128">
	<rect width="128" height="128" rx="22" fill="#050306"/>
	<path
		d="M88 86h18c11.6 0 21-9.4 21-21 0-10.8-8.2-19.8-18.8-20.9C103.3 27.1 88.8 16 71.7 16 54.6 16 40.1 27.1 35.8 44.1 25.2 45.2 17 54.2 17 65c0 11.6 9.4 21 21 21h20c6.6 0 12 5.4 12 12v14h18V98c0-6.6 5.4-12 12-12Z"
		fill="#f5f5f5"
	/>
	<text x="33" y="114" fill="#f5f5f5" font-family="Rajdhani, Arial, sans-serif" font-size="42" font-weight="700">JG</text>
</svg>